<svg xmlns="http://www.w3.org/2000/svg" width="235.198" height="250.199" viewBox="0 0 235.198 250.199">
  <g id="exterior-detailing" transform="translate(-13 -0.301)">
    <g id="Group_184" data-name="Group 184">
      <path id="Path_126" data-name="Path 126" d="M213,70.7,200.328,48.172,177.8,35.5l22.526-12.671L213,.3l12.672,22.527L248.2,35.5,225.672,48.171ZM198.2,35.5l9.474,5.329L213,50.3l5.328-9.473L227.8,35.5l-9.474-5.329L213,20.7l-5.328,9.473Z"/>
    </g>
    <g id="Group_185" data-name="Group 185">
      <path id="Path_127" data-name="Path 127" d="M164.72,130.5H13V20.5h92.679A34.784,34.784,0,0,1,139.2,45.443ZM23,120.5H151.28L129.625,48.316A24.847,24.847,0,0,0,105.679,30.5H23Z"/>
    </g>
    <g id="Group_186" data-name="Group 186">
      <path id="Path_128" data-name="Path 128" d="M104.1,250.5H13v-60H79.8a15.04,15.04,0,0,1,14.709,12.059ZM23,240.5H91.9l-7.2-35.98a5.012,5.012,0,0,0-4.9-4.02H23Z"/>
    </g>
    <g id="Group_187" data-name="Group 187">
      <path id="Path_129" data-name="Path 129" d="M199.762,144.775,158,125.5H18v70H79.8a10,10,0,0,1,9.806,8.039L98,245.5H223V181.093A40,40,0,0,0,199.762,144.775ZM168,225.5a30,30,0,1,1,30-30A30,30,0,0,1,168,225.5Z" fill="#ff6248"/>
      <path id="Path_130" data-name="Path 130" d="M228,250.5H93.9l-9.2-45.98a5.012,5.012,0,0,0-4.9-4.02H13v-80H159.1l42.76,19.735A45.133,45.133,0,0,1,228,181.093V250.5Zm-125.9-10H218V181.093a35.1,35.1,0,0,0-20.333-31.779L156.9,130.5H23v60H79.8a15.04,15.04,0,0,1,14.709,12.059Zm65.9-10a35,35,0,1,1,35-35A35.04,35.04,0,0,1,168,230.5Zm0-60a25,25,0,1,0,25,25A25.028,25.028,0,0,0,168,170.5Z"/>
    </g>
    <g id="Group_188" data-name="Group 188">
      <rect id="Rectangle_74" data-name="Rectangle 74" width="75" height="10" transform="translate(18 215.5)"/>
    </g>
    <g id="Group_189" data-name="Group 189">
      <path id="Path_131" data-name="Path 131" d="M208,120.5H183a15.017,15.017,0,0,1-15-15v-10a15.017,15.017,0,0,1,15-15h25a15.017,15.017,0,0,1,15,15v10A15.017,15.017,0,0,1,208,120.5Zm-25-30a5.006,5.006,0,0,0-5,5v10a5.006,5.006,0,0,0,5,5h25a5.006,5.006,0,0,0,5-5v-10a5.006,5.006,0,0,0-5-5Z"/>
    </g>
    <g id="Group_190" data-name="Group 190">
      <rect id="Rectangle_75" data-name="Rectangle 75" width="25" height="10" transform="matrix(0.8, -0.6, 0.6, 0.8, 155, 121.5)"/>
    </g>
    <g id="Group_191" data-name="Group 191">
      <path id="Path_132" data-name="Path 132" d="M42.472,127.736l-8.944-4.472L44.91,100.5H128v10H51.09Z"/>
    </g>
  </g>
</svg>
