<svg xmlns="http://www.w3.org/2000/svg" width="250.198" height="244.014" viewBox="0 0 250.198 244.014">
  <g id="full-service-wash" transform="translate(-3 -3.986)">
    <g id="Group_201" data-name="Group 201">
      <rect id="Rectangle_78" data-name="Rectangle 78" width="35" height="10" transform="translate(70.5 98)"/>
    </g>
    <g id="Group_202" data-name="Group 202">
      <path id="Path_143" data-name="Path 143" d="M163,133H13V100.361A24.863,24.863,0,0,1,26.82,78l10-5H139.181l10,5A24.864,24.864,0,0,1,163,100.361ZM23,123H153V100.361a14.92,14.92,0,0,0-8.292-13.417L136.819,83H39.18l-7.889,3.944A14.919,14.919,0,0,0,23,100.361Z"/>
    </g>
    <g id="Group_203" data-name="Group 203">
      <path id="Path_144" data-name="Path 144" d="M145.583,83H30.417L45.806,47.091A14.984,14.984,0,0,1,59.594,38h56.812a14.983,14.983,0,0,1,13.787,9.091Zm-100-10h84.834L121,51.031a5,5,0,0,0-4.6-3.031H59.594A4.994,4.994,0,0,0,55,51.031Z"/>
    </g>
    <g id="Group_204" data-name="Group 204">
      <path id="Path_145" data-name="Path 145" d="M33,158a15.017,15.017,0,0,1-15-15V123H48v20A15.017,15.017,0,0,1,33,158Zm-5-25v10a5,5,0,0,0,10,0V133Z"/>
    </g>
    <g id="Group_205" data-name="Group 205">
      <path id="Path_146" data-name="Path 146" d="M143,158a15.017,15.017,0,0,1-15-15V123h30v20A15.017,15.017,0,0,1,143,158Zm-5-25v10a5,5,0,0,0,10,0V133Z"/>
    </g>
    <g id="Group_206" data-name="Group 206">
      <circle id="Ellipse_10" data-name="Ellipse 10" cx="10" cy="10" r="10" transform="translate(33 93)"/>
    </g>
    <g id="Group_207" data-name="Group 207">
      <circle id="Ellipse_11" data-name="Ellipse 11" cx="10" cy="10" r="10" transform="translate(123 93)"/>
    </g>
    <g id="Group_208" data-name="Group 208">
      <path id="Path_147" data-name="Path 147" d="M34.464,81.536,25.929,73H13V63H30.071L41.536,74.464Z"/>
    </g>
    <g id="Group_209" data-name="Group 209">
      <path id="Path_148" data-name="Path 148" d="M141.535,81.536l-7.07-7.072L145.929,63H163V73H150.071Z"/>
    </g>
    <g id="Group_210" data-name="Group 210">
      <rect id="Rectangle_79" data-name="Rectangle 79" width="80" height="60" transform="translate(8 183)" fill="#4ab6ff"/>
      <path id="Path_149" data-name="Path 149" d="M93,248H3V178H93ZM13,238H83V188H13Z"/>
    </g>
    <g id="Group_211" data-name="Group 211">
      <path id="Path_150" data-name="Path 150" d="M43,230.071,29.464,216.536l7.072-7.072L43,215.929l16.464-16.465,7.072,7.072Z"/>
    </g>
    <g id="Group_212" data-name="Group 212">
      <rect id="Rectangle_80" data-name="Rectangle 80" width="80" height="60" transform="translate(88 183)" fill="#4ab6ff"/>
      <path id="Path_151" data-name="Path 151" d="M173,248H83V178h90ZM93,238h70V188H93Z"/>
    </g>
    <g id="Group_213" data-name="Group 213">
      <path id="Path_152" data-name="Path 152" d="M123,230.071l-13.536-13.535,7.072-7.072L123,215.929l16.465-16.465,7.07,7.072Z"/>
    </g>
    <g id="Group_214" data-name="Group 214">
      <rect id="Rectangle_81" data-name="Rectangle 81" width="80" height="60" transform="translate(168 183)" fill="#4ab6ff"/>
      <path id="Path_153" data-name="Path 153" d="M253,248H163V178h90Zm-80-10h70V188H173Z"/>
    </g>
    <g id="Group_215" data-name="Group 215">
      <path id="Path_154" data-name="Path 154" d="M203,230.071l-13.535-13.535,7.07-7.072L203,215.929l16.465-16.465,7.07,7.072Z"/>
    </g>
    <g id="Group_216" data-name="Group 216">
      <path id="Path_155" data-name="Path 155" d="M213,82.014,195.5,55.771,172.8,43l22.7-12.771L213,3.986l17.5,26.243L253.2,43,230.5,55.771ZM193.2,43l9.3,5.229L213,63.986l10.5-15.757L232.8,43l-9.3-5.229L213,22.014,202.5,37.771Z"/>
    </g>
  </g>
</svg>
