<svg xmlns="http://www.w3.org/2000/svg" width="250" height="250" viewBox="0 0 250 250">
  <g id="hand-towel" transform="translate(-3 -3)">
    <g id="Group_241" data-name="Group 241">
      <g id="Group_233" data-name="Group 233">
        <path id="Path_173" data-name="Path 173" d="M208,213v35h5l35-35v-5H213A5,5,0,0,0,208,213Z" fill="#4ab6ff"/>
        <path id="Path_174" data-name="Path 174" d="M215.071,253H203V213a10.011,10.011,0,0,1,10-10h40v12.071ZM213,213v27.929L240.929,213Z"/>
      </g>
      <g id="Group_234" data-name="Group 234">
        <path id="Path_175" data-name="Path 175" d="M148,193H110.111a44.854,44.854,0,0,1-24.961-7.558L63,170.676V105.3L85.872,90.338A44.885,44.885,0,0,1,110.5,83H128a15,15,0,0,1,14.143,20H168a15,15,0,0,1,13.945,20.526,15,15,0,0,1,0,28.948A15,15,0,0,1,168,173h-5.857A15,15,0,0,1,148,193ZM73,165.324l17.7,11.8A34.889,34.889,0,0,0,110.111,183H148a5,5,0,0,0,0-10V163h20a5,5,0,0,0,0-10V143h10a5,5,0,0,0,0-10H168V123a5,5,0,0,0,0-10H128V103a5,5,0,0,0,0-10H110.5a34.92,34.92,0,0,0-19.156,5.707L73,110.7Z"/>
      </g>
      <g id="Group_235" data-name="Group 235">
        <path id="Path_176" data-name="Path 176" d="M228,8H98A20,20,0,0,0,78,28v73.46l10.609-6.938A40,40,0,0,1,110.5,88H128a10,10,0,0,1,0,20h40a10,10,0,0,1,0,20h10a10,10,0,0,1,0,20H168a10,10,0,0,1,0,20H148a10,10,0,0,1,0,20H110.111a40,40,0,0,1-22.188-6.718L78,174.666V228a20,20,0,0,0,20,20h90V198a10,10,0,0,1,10-10h50V28A20,20,0,0,0,228,8Z" fill="#4ab6ff"/>
        <path id="Path_177" data-name="Path 177" d="M193,253H98a25.028,25.028,0,0,1-25-25V165.322l17.7,11.8A34.888,34.888,0,0,0,110.111,183H148a5,5,0,0,0,0-10V163h20a5,5,0,0,0,0-10V143h10a5,5,0,0,0,0-10H168V123a5,5,0,0,0,0-10H128V103a5,5,0,0,0,0-10H110.5a34.92,34.92,0,0,0-19.156,5.707L73,110.7V28A25.028,25.028,0,0,1,98,3H228a25.028,25.028,0,0,1,25,25V193H198a5.006,5.006,0,0,0-5,5ZM83,184.01V228a15.017,15.017,0,0,0,15,15h85V198a15.017,15.017,0,0,1,15-15h45V28a15.017,15.017,0,0,0-15-15H98A15.017,15.017,0,0,0,83,28V92.216l2.873-1.878A44.879,44.879,0,0,1,110.5,83H128a15,15,0,0,1,14.143,20H168a15,15,0,0,1,13.945,20.526,15,15,0,0,1,0,28.948A15,15,0,0,1,168,173h-5.857A15,15,0,0,1,148,193H110.111a44.854,44.854,0,0,1-24.961-7.558Z"/>
      </g>
      <g id="Group_236" data-name="Group 236">
        <rect id="Rectangle_84" data-name="Rectangle 84" width="20" height="10" transform="translate(128 163)"/>
      </g>
      <g id="Group_237" data-name="Group 237">
        <rect id="Rectangle_85" data-name="Rectangle 85" width="40" height="10" transform="translate(128 143)"/>
      </g>
      <g id="Group_238" data-name="Group 238">
        <rect id="Rectangle_86" data-name="Rectangle 86" width="40" height="10" transform="translate(128 123)"/>
      </g>
      <g id="Group_239" data-name="Group 239">
        <rect id="Rectangle_87" data-name="Rectangle 87" width="20" height="10" transform="translate(108 103)"/>
      </g>
      <g id="Group_240" data-name="Group 240">
        <path id="Path_178" data-name="Path 178" d="M53,173H3V103H53ZM13,163H43V113H13Z"/>
      </g>
    </g>
  </g>
</svg>
