<svg xmlns="http://www.w3.org/2000/svg" width="245" height="250" viewBox="0 0 245 250">
  <g id="headlight-restoration" transform="translate(-3 -3)">
    <g id="Group_253" data-name="Group 253">
      <rect id="Rectangle_92" data-name="Rectangle 92" width="40" height="10" transform="translate(208 48)"/>
    </g>
    <g id="Group_254" data-name="Group 254">
      <rect id="Rectangle_93" data-name="Rectangle 93" width="40" height="10" transform="translate(208 108)"/>
    </g>
    <g id="Group_255" data-name="Group 255">
      <rect id="Rectangle_94" data-name="Rectangle 94" width="40" height="10" transform="translate(208 78)"/>
    </g>
    <g id="Group_256" data-name="Group 256">
      <rect id="Rectangle_95" data-name="Rectangle 95" width="40" height="10" transform="translate(208 18)"/>
    </g>
    <g id="Group_257" data-name="Group 257">
      <path id="Path_187" data-name="Path 187" d="M73,213H63a15.017,15.017,0,0,1-15-15V113A15.017,15.017,0,0,1,63,98H73a15.017,15.017,0,0,1,15,15v85A15.017,15.017,0,0,1,73,213ZM63,108a5.006,5.006,0,0,0-5,5v85a5.006,5.006,0,0,0,5,5H73a5.006,5.006,0,0,0,5-5V113a5.006,5.006,0,0,0-5-5Z"/>
    </g>
    <g id="Group_258" data-name="Group 258">
      <path id="Path_188" data-name="Path 188" d="M73,213H63a15.017,15.017,0,0,1-15-15V113A15.017,15.017,0,0,1,63,98H73a15.017,15.017,0,0,1,15,15v85A15.017,15.017,0,0,1,73,213ZM63,108a5.006,5.006,0,0,0-5,5v85a5.006,5.006,0,0,0,5,5H73a5.006,5.006,0,0,0,5-5V113a5.006,5.006,0,0,0-5-5Z"/>
    </g>
    <g id="Group_259" data-name="Group 259">
      <path id="Path_189" data-name="Path 189" d="M78,172.559V113a5.006,5.006,0,0,0-5-5H63a5.006,5.006,0,0,0-5,5v59.559l-6.246-1.607a65,65,0,1,1,32.492,0ZM63,98H73a15.017,15.017,0,0,1,15,15v46.257a55,55,0,1,0-40,0V113A15.017,15.017,0,0,1,63,98Z"/>
    </g>
    <g id="Group_260" data-name="Group 260">
      <path id="Path_190" data-name="Path 190" d="M168,8H113A60.012,60.012,0,0,0,56.022,49.2,60.038,60.038,0,0,1,124.584,128H168a20,20,0,0,0,20-20V28A20,20,0,0,0,168,8Z" fill="#ffc44d"/>
      <path id="Path_191" data-name="Path 191" d="M168,133H117.513l2.357-6.667A55.037,55.037,0,0,0,68,53a55.431,55.431,0,0,0-10.985,1.1l-8.438,1.71,2.7-8.177A64.879,64.879,0,0,1,113,3h55a25.028,25.028,0,0,1,25,25v80A25.028,25.028,0,0,1,168,133Zm-36.741-10H168a15.017,15.017,0,0,0,15-15V28a15.017,15.017,0,0,0-15-15H113A54.887,54.887,0,0,0,63.938,43.126Q65.966,43,68,43a65.051,65.051,0,0,1,63.259,80Z"/>
    </g>
    <g id="Group_261" data-name="Group 261">
      <path id="Path_192" data-name="Path 192" d="M58,142.647,50.5,138.3A35,35,0,0,1,65.7,73.073h0a34.726,34.726,0,0,1,26.236,9.394A35,35,0,0,1,85.5,138.3L78,142.647V113a5.006,5.006,0,0,0-5-5H63a5.006,5.006,0,0,0-5,5Zm8.344-59.594A25.014,25.014,0,0,0,48,123.019V113A15.017,15.017,0,0,1,63,98H73a15.017,15.017,0,0,1,15,15v9.972A25.032,25.032,0,0,0,93,108,25,25,0,0,0,66.344,83.053Z"/>
    </g>
    <g id="Group_262" data-name="Group 262">
      <path id="Path_193" data-name="Path 193" d="M248,253H28a15,15,0,0,1,0-30H58a5.006,5.006,0,0,0,5-5V208H73v10a15.017,15.017,0,0,1-15,15H28a5,5,0,0,0,0,10H248Z"/>
    </g>
  </g>
</svg>
