<svg xmlns="http://www.w3.org/2000/svg" width="230.198" height="230" viewBox="0 0 230.198 230">
  <g id="mat-cleaning" transform="translate(-12.901 -13)">
    <g id="Group_290" data-name="Group 290">
      <path id="Path_208" data-name="Path 208" d="M207.9,88.2,195.229,65.672,172.7,53l22.526-12.671L207.9,17.8l12.672,22.527L243.1,53,220.573,65.671ZM193.1,53l9.474,5.329L207.9,67.8l5.328-9.473L222.7,53l-9.474-5.329L207.9,38.2l-5.328,9.473Z"/>
    </g>
    <g id="Group_291" data-name="Group 291">
      <path id="Path_209" data-name="Path 209" d="M99.972,213H57.9a15.017,15.017,0,0,1-15-15V155.929ZM52.9,180.071V198a5.006,5.006,0,0,0,5,5H75.83Z"/>
    </g>
    <g id="Group_292" data-name="Group 292">
      <path id="Path_210" data-name="Path 210" d="M139.972,213H85.83L42.9,170.071V115.928Zm-50-10h25.857L52.9,140.071v25.857Z"/>
    </g>
    <g id="Group_293" data-name="Group 293">
      <path id="Path_211" data-name="Path 211" d="M179.972,213H125.83L42.9,130.071V75.929Zm-50-10h25.857L52.9,100.071v25.857Z"/>
    </g>
    <g id="Group_294" data-name="Group 294">
      <path id="Path_212" data-name="Path 212" d="M177.9,213H165.83L42.9,90.071V48H54.972L192.9,185.929V198A15.017,15.017,0,0,1,177.9,213Zm-7.929-10H177.9a5.006,5.006,0,0,0,5-5v-7.929l-130-130V85.928Z"/>
    </g>
    <g id="Group_295" data-name="Group 295">
      <path id="Path_213" data-name="Path 213" d="M192.9,200.071,50.83,58H42.9V43h75a15.017,15.017,0,0,1,15,15V69.716a44.7,44.7,0,0,0,13.18,31.819l42.428,42.427a14.9,14.9,0,0,1,4.393,10.606v45.5ZM59.972,53,182.9,175.929v-21.36a4.972,4.972,0,0,0-1.465-3.536L139.01,108.607A54.635,54.635,0,0,1,122.9,69.716V58a5.006,5.006,0,0,0-5-5Z"/>
    </g>
    <g id="Group_296" data-name="Group 296">
      <path id="Path_214" data-name="Path 214" d="M212.043,132.142,163.759,83.858A20,20,0,0,1,157.9,69.716V38a20,20,0,0,0-20-20H37.9a20,20,0,0,0-20,20V218a20,20,0,0,0,20,20h160a20,20,0,0,0,20-20V146.284A20,20,0,0,0,212.043,132.142ZM187.9,188v10a10,10,0,0,1-10,10H57.9a10,10,0,0,1-10-10V48h70a10,10,0,0,1,10,10V69.716a50,50,0,0,0,14.645,35.355L184.973,147.5a10,10,0,0,1,2.929,7.071V188Z" fill="#ffc44d"/>
      <path id="Path_215" data-name="Path 215" d="M197.9,243H37.9a25.028,25.028,0,0,1-25-25V38a25.028,25.028,0,0,1,25-25h100a25.028,25.028,0,0,1,25,25V69.716a14.906,14.906,0,0,0,4.394,10.607l48.285,48.284a24.84,24.84,0,0,1,7.321,17.677V218A25.028,25.028,0,0,1,197.9,243ZM37.9,23a15.017,15.017,0,0,0-15,15V218a15.017,15.017,0,0,0,15,15h160a15.017,15.017,0,0,0,15-15V146.284a14.906,14.906,0,0,0-4.394-10.607L160.223,87.393A24.839,24.839,0,0,1,152.9,69.715V38a15.017,15.017,0,0,0-15-15Zm140,190H57.9a15.017,15.017,0,0,1-15-15V43h75a15.017,15.017,0,0,1,15,15V69.716a44.7,44.7,0,0,0,13.18,31.819l42.427,42.427a14.9,14.9,0,0,1,4.394,10.607V198A15.019,15.019,0,0,1,177.9,213ZM52.9,53V198a5.006,5.006,0,0,0,5,5h120a5.006,5.006,0,0,0,5-5V154.569a4.972,4.972,0,0,0-1.465-3.536L139.01,108.607A54.635,54.635,0,0,1,122.9,69.716V58a5.006,5.006,0,0,0-5-5Z"/>
    </g>
  </g>
</svg>
