<svg xmlns="http://www.w3.org/2000/svg" width="235.197" height="250" viewBox="0 0 235.197 250">
  <g id="seat-cleaning" transform="translate(-12.498 -3)">
    <g id="Group_406" data-name="Group 406">
      <path id="Path_288" data-name="Path 288" d="M212.5,93.2,199.825,70.672,177.3,58l22.526-12.671L212.5,22.8l12.672,22.527L247.7,58,225.169,70.671ZM197.7,58l9.474,5.329L212.5,72.8l5.328-9.473L227.3,58l-9.474-5.329L212.5,43.2l-5.328,9.473Z"/>
    </g>
    <g id="Group_407" data-name="Group 407">
      <path id="Path_289" data-name="Path 289" d="M192.71,203H42.285L46.7,96.959A24.94,24.94,0,0,1,71.681,73h91.632a24.942,24.942,0,0,1,24.979,23.959Zm-140-10H182.284L178.3,97.375A14.963,14.963,0,0,0,163.313,83H71.681A14.964,14.964,0,0,0,56.694,97.375Z"/>
    </g>
    <g id="Group_408" data-name="Group 408">
      <path id="Path_290" data-name="Path 290" d="M141.447,63h-47.9A15,15,0,0,1,78.621,46.507l3-30A14.954,14.954,0,0,1,96.547,3h41.9a14.954,14.954,0,0,1,14.926,13.508l3,30A15,15,0,0,1,141.447,63Zm-44.9-50a4.985,4.985,0,0,0-4.976,4.5l-3,30A5,5,0,0,0,93.547,53h47.9a5,5,0,0,0,4.975-5.5l-3-30a4.983,4.983,0,0,0-4.975-4.5h-41.9Z"/>
    </g>
    <g id="Group_409" data-name="Group 409">
      <path id="Path_291" data-name="Path 291" d="M192.5,253H42.5V193h150Zm-140-10h130V203H52.5Z"/>
    </g>
    <g id="Group_410" data-name="Group 410">
      <path id="Path_292" data-name="Path 292" d="M52.5,253h-15a25.028,25.028,0,0,1-25-25V208a15.017,15.017,0,0,1,15-15h25Zm-25-50a5.006,5.006,0,0,0-5,5v20a15.017,15.017,0,0,0,15,15h5V203Z"/>
    </g>
    <g id="Group_411" data-name="Group 411">
      <path id="Path_293" data-name="Path 293" d="M197.5,253h-15V193h25a15.017,15.017,0,0,1,15,15v20A25.028,25.028,0,0,1,197.5,253Zm-5-10h5a15.017,15.017,0,0,0,15-15V208a5.006,5.006,0,0,0-5-5h-15Z"/>
    </g>
    <g id="Group_412" data-name="Group 412">
      <path id="Path_294" data-name="Path 294" d="M147.5,198h-60V138a20,20,0,0,1,20-20h20a20,20,0,0,1,20,20Z" fill="#ffc44d"/>
      <path id="Path_295" data-name="Path 295" d="M152.5,203h-70V138a25.028,25.028,0,0,1,25-25h20a25.028,25.028,0,0,1,25,25Zm-60-10h50V138a15.017,15.017,0,0,0-15-15h-20a15.017,15.017,0,0,0-15,15Z"/>
    </g>
  </g>
</svg>
