<svg xmlns="http://www.w3.org/2000/svg" width="250.198" height="250.199" viewBox="0 0 250.198 250.199">
  <g id="tire-cleaning" transform="translate(-5.5 -2.801)">
    <g id="Group_476" data-name="Group 476">
      <path id="Path_341" data-name="Path 341" d="M130.5,128h-30V69.388l4.291-.615a74.975,74.975,0,0,1,21.418,0l4.291.615Zm-20-10h10V78.2a63.47,63.47,0,0,0-10,0Z"/>
    </g>
    <g id="Group_477" data-name="Group 477">
      <path id="Path_342" data-name="Path 342" d="M115.5,218a75.9,75.9,0,0,1-10.708-.773l-4.292-.614V158h30v58.613l-4.292.614A75.9,75.9,0,0,1,115.5,218Zm-5-10.2a63.47,63.47,0,0,0,10,0V168h-10Z"/>
    </g>
    <g id="Group_478" data-name="Group 478">
      <path id="Path_343" data-name="Path 343" d="M135.99,148.49l-15-25.98,50.742-29.3,2.68,3.4a74.9,74.9,0,0,1,10.729,18.551l1.608,4.022Zm-1.34-22.32,5,8.66,34.472-19.9a64.687,64.687,0,0,0-5.009-8.655Z"/>
    </g>
    <g id="Group_479" data-name="Group 479">
      <path id="Path_344" data-name="Path 344" d="M59.268,192.786l-2.68-3.4a74.9,74.9,0,0,1-10.729-18.551l-1.608-4.022,50.76-29.306,15,25.98Zm-2.39-21.714a64.687,64.687,0,0,0,5.009,8.655l34.463-19.9-5-8.66Z"/>
    </g>
    <g id="Group_480" data-name="Group 480">
      <path id="Path_345" data-name="Path 345" d="M95.01,148.49,44.25,119.184l1.608-4.022A74.918,74.918,0,0,1,56.587,96.611l2.68-3.4,50.742,29.3ZM56.878,114.928l34.472,19.9,5-8.66-34.463-19.9A64.688,64.688,0,0,0,56.878,114.928Z"/>
    </g>
    <g id="Group_481" data-name="Group 481">
      <path id="Path_346" data-name="Path 346" d="M171.732,192.786l-50.742-29.3,15-25.98,50.76,29.306-1.608,4.022a74.918,74.918,0,0,1-10.729,18.551ZM134.65,159.83l34.463,19.9a64.8,64.8,0,0,0,5.009-8.655l-34.472-19.9Z"/>
    </g>
    <g id="Group_482" data-name="Group 482">
      <path id="Path_347" data-name="Path 347" d="M115.5,168a25,25,0,1,1,25-25A25.028,25.028,0,0,1,115.5,168Zm0-40a15,15,0,1,0,15,15A15.017,15.017,0,0,0,115.5,128Z"/>
    </g>
    <g id="Group_484" data-name="Group 484">
      <path id="Path_348" data-name="Path 348" d="M220.5,193V93a5,5,0,0,1,5-5h15a5,5,0,0,1,5,5V193a5,5,0,0,1-5,5h-15A5,5,0,0,1,220.5,193Z" fill="#ff6248"/>
      <g id="Group_483" data-name="Group 483">
        <path id="Path_349" data-name="Path 349" d="M240.5,203h-15a10.011,10.011,0,0,1-10-10V93a10.011,10.011,0,0,1,10-10h15a10.011,10.011,0,0,1,10,10V193A10.011,10.011,0,0,1,240.5,203Zm-15-110V193.006l15-.006V93Z"/>
      </g>
    </g>
    <g id="Group_485" data-name="Group 485">
      <path id="Path_350" data-name="Path 350" d="M225.5,193h-45V93h45Zm-35-10h25V103h-25Z"/>
    </g>
    <g id="Group_486" data-name="Group 486">
      <path id="Path_351" data-name="Path 351" d="M115.5,253A110,110,0,1,1,214.906,95.854L218.3,103H190.5v80h27.8l-3.4,7.146A110.008,110.008,0,0,1,115.5,253Zm0-210a100,100,0,1,0,86.613,150H180.5V180.387a75,75,0,1,1,0-74.774V93h21.613A100.576,100.576,0,0,0,115.5,43Zm0,35a65,65,0,1,0,65,65A65.074,65.074,0,0,0,115.5,78Z"/>
    </g>
    <g id="Group_487" data-name="Group 487">
      <rect id="Rectangle_177" data-name="Rectangle 177" width="25" height="10" transform="translate(185.5 113)"/>
    </g>
    <g id="Group_488" data-name="Group 488">
      <rect id="Rectangle_178" data-name="Rectangle 178" width="25" height="10" transform="translate(185.5 138)"/>
    </g>
    <g id="Group_489" data-name="Group 489">
      <rect id="Rectangle_179" data-name="Rectangle 179" width="25" height="10" transform="translate(185.5 163)"/>
    </g>
    <g id="Group_490" data-name="Group 490">
      <path id="Path_352" data-name="Path 352" d="M220.5,73.2,207.828,50.672,185.3,38l22.526-12.671L220.5,2.8l12.672,22.527L255.7,38,233.172,50.671ZM205.7,38l9.474,5.329L220.5,52.8l5.328-9.473L235.3,38l-9.474-5.329L220.5,23.2l-5.328,9.473Z"/>
    </g>
  </g>
</svg>
