<svg xmlns="http://www.w3.org/2000/svg" width="133.033" height="167.875" viewBox="0 0 133.033 167.875">
  <g id="Basic" transform="translate(-793 -321.625)">
    <path id="Icon_feather-shield" data-name="Icon feather-shield" d="M72.017,194.437l66.017-40.19V27.563H6V154.248Z" transform="translate(787.5 294.563)" fill="#c5d3df" stroke="#adc4dc" stroke-linecap="round" stroke-linejoin="round" stroke-width="1"/>
    <path id="Icon_feather-shield-2" data-name="Icon feather-shield" d="M60.258,142.861l54.258-33.031V27.563H6V109.83Z" transform="translate(799 306.356)" fill="#f6fdff"/>
    <path id="Path_8" data-name="Path 8" d="M747,459.1v10.409l54.243,32.655,54.15-32.655v-9.8L801.241,492Z" transform="translate(58.002 -29.314)" fill="#f6fdff"/>
    <path id="Icon_awesome-car-alt" data-name="Icon awesome-car-alt" d="M62.045,25.48l-1.59-3.975-2.819-7.048A15.765,15.765,0,0,0,42.928,4.5H24.965a15.766,15.766,0,0,0-14.709,9.958L7.437,21.506,5.847,25.48A9.033,9.033,0,0,0,0,33.92v6.789A8.979,8.979,0,0,0,2.263,46.64v7.648a4.527,4.527,0,0,0,4.526,4.526h4.526a4.527,4.527,0,0,0,4.526-4.526V49.762H52.051v4.526a4.527,4.527,0,0,0,4.526,4.526H61.1a4.527,4.527,0,0,0,4.526-4.526V46.64a8.973,8.973,0,0,0,2.263-5.931V33.92A9.033,9.033,0,0,0,62.045,25.48ZM18.66,17.82a6.79,6.79,0,0,1,6.3-4.267H42.928a6.79,6.79,0,0,1,6.3,4.267l2.819,7.048H15.842L18.66,17.82ZM11.315,40.681a4.27,4.27,0,0,1-4.526-4.512,4.27,4.27,0,0,1,4.526-4.512c2.716,0,6.789,4.061,6.789,6.768S14.031,40.681,11.315,40.681Zm45.261,0c-2.716,0-6.789.451-6.789-2.256s4.074-6.768,6.789-6.768A4.27,4.27,0,0,1,61.1,36.169a4.27,4.27,0,0,1-4.526,4.512Z" transform="translate(826 361.5)" fill="#c5d3df"/>
    <path id="Icon_ionic-ios-water" data-name="Icon ionic-ios-water" d="M14.759,6.453a13.99,13.99,0,0,0-2.841-3.022.268.268,0,0,0-.325,0A13.818,13.818,0,0,0,8.762,6.447a9.49,9.49,0,0,0-2.008,5.347c0,.038,0,.078,0,.116a4.089,4.089,0,0,0,.341,1.63,4.4,4.4,0,0,0,.476.823,5.164,5.164,0,0,0,4.186,2.027,4.767,4.767,0,0,0,5.009-4.48A9.527,9.527,0,0,0,14.759,6.453Zm-2.69,8.269h-.016a.274.274,0,0,1-.081-.535,3.9,3.9,0,0,0,2.7-2.528.272.272,0,0,1,.526.1V11.8A3.036,3.036,0,0,1,12.068,14.721Z" transform="translate(848.25 338.674)" fill="#b7c5d1"/>
    <path id="Icon_ionic-ios-water-2" data-name="Icon ionic-ios-water" d="M14.759,6.453a13.99,13.99,0,0,0-2.841-3.022.268.268,0,0,0-.325,0A13.818,13.818,0,0,0,8.762,6.447a9.49,9.49,0,0,0-2.008,5.347c0,.038,0,.078,0,.116a4.089,4.089,0,0,0,.341,1.63,4.4,4.4,0,0,0,.476.823,5.164,5.164,0,0,0,4.186,2.027,4.767,4.767,0,0,0,5.009-4.48A9.527,9.527,0,0,0,14.759,6.453Zm-2.69,8.269h-.016a.274.274,0,0,1-.081-.535,3.9,3.9,0,0,0,2.7-2.528.272.272,0,0,1,.526.1V11.8A3.036,3.036,0,0,1,12.068,14.721Z" transform="translate(828.25 338.674)" fill="#b7c5d1"/>
    <path id="Icon_ionic-ios-water-3" data-name="Icon ionic-ios-water" d="M14.759,6.453a13.99,13.99,0,0,0-2.841-3.022.268.268,0,0,0-.325,0A13.818,13.818,0,0,0,8.762,6.447a9.49,9.49,0,0,0-2.008,5.347c0,.038,0,.078,0,.116a4.089,4.089,0,0,0,.341,1.63,4.4,4.4,0,0,0,.476.823,5.164,5.164,0,0,0,4.186,2.027,4.767,4.767,0,0,0,5.009-4.48A9.527,9.527,0,0,0,14.759,6.453Zm-2.69,8.269h-.016a.274.274,0,0,1-.081-.535,3.9,3.9,0,0,0,2.7-2.528.272.272,0,0,1,.526.1V11.8A3.036,3.036,0,0,1,12.068,14.721Z" transform="translate(868.25 338.674)" fill="#b7c5d1"/>
  </g>
</svg>
