<svg xmlns="http://www.w3.org/2000/svg" width="131" height="166.875" viewBox="0 0 131 166.875">
  <g id="Detailing" transform="translate(-660.5 -94.125)">
    <path id="Icon_feather-shield" data-name="Icon feather-shield" d="M71.5,163.941l65.5,30.5V27.562H6V194.437Z" transform="translate(654.5 66.563)" fill="#ff8000"/>
    <path id="Icon_feather-shield-2" data-name="Icon feather-shield" d="M59.218,138.369l53.218,24.779V27.562H6V163.148Z" transform="translate(666.5 77.563)" fill="#ffb714" stroke="#fff" stroke-linecap="round" stroke-linejoin="round" stroke-width="3"/>
    <path id="Icon_awesome-car-alt" data-name="Icon awesome-car-alt" d="M62.045,25.48l-1.59-3.975-2.819-7.048A15.765,15.765,0,0,0,42.928,4.5H24.965a15.766,15.766,0,0,0-14.709,9.958L7.437,21.506,5.847,25.48A9.033,9.033,0,0,0,0,33.92v6.789A8.979,8.979,0,0,0,2.263,46.64v7.648a4.527,4.527,0,0,0,4.526,4.526h4.526a4.527,4.527,0,0,0,4.526-4.526V49.762H52.051v4.526a4.527,4.527,0,0,0,4.526,4.526H61.1a4.527,4.527,0,0,0,4.526-4.526V46.64a8.973,8.973,0,0,0,2.263-5.931V33.92A9.033,9.033,0,0,0,62.045,25.48ZM18.66,17.82a6.79,6.79,0,0,1,6.3-4.267H42.928a6.79,6.79,0,0,1,6.3,4.267l2.819,7.048H15.842L18.66,17.82ZM11.315,40.681a4.27,4.27,0,0,1-4.526-4.512,4.27,4.27,0,0,1,4.526-4.512c2.716,0,6.789,4.061,6.789,6.768S14.031,40.681,11.315,40.681Zm45.261,0c-2.716,0-6.789.451-6.789-2.256s4.074-6.768,6.789-6.768A4.27,4.27,0,0,1,61.1,36.169a4.27,4.27,0,0,1-4.526,4.512Z" transform="translate(692.054 145.282)" fill="#fff"/>
    <path id="Path_408" data-name="Path 408" d="M185.792,16.281l-2.876-5.114L177.8,8.291l5.113-2.876L185.792.3l2.877,5.114,5.113,2.877-5.113,2.876ZM180.9,8.291l3.047,1.842,1.841,3.046,1.842-3.046,3.047-1.842-3.047-1.842L185.792,3.4,183.95,6.45Z" transform="translate(567.036 120.599)" fill="#fff"/>
    <path id="Path_409" data-name="Path 409" d="M182.9,10.493l-1.835-3.261L177.8,5.4l3.261-1.834L182.9.3l1.835,3.261L187.994,5.4l-3.261,1.834ZM179.78,5.4l1.943,1.175L182.9,8.514l1.174-1.943L186.015,5.4l-1.943-1.175L182.9,2.279l-1.174,1.943Z" transform="translate(564.036 135.493)" fill="#fff"/>
    <path id="Path_410" data-name="Path 410" d="M182.9,10.493l-1.835-3.261L177.8,5.4l3.261-1.834L182.9.3l1.835,3.261L187.994,5.4l-3.261,1.834ZM179.78,5.4l1.943,1.175L182.9,8.514l1.174-1.943L186.015,5.4l-1.943-1.175L182.9,2.279l-1.174,1.943Z" transform="translate(577.048 132.493)" fill="#fff"/>
  </g>
</svg>
