<?xml version="1.0" encoding="utf-8"?>
<!-- Generator: Adobe Illustrator 25.1.0, SVG Export Plug-In . SVG Version: 6.00 Build 0)  -->
<svg version="1.1" id="Layer_1" xmlns="http://www.w3.org/2000/svg" xmlns:xlink="http://www.w3.org/1999/xlink" x="0px" y="0px"
	 viewBox="0 0 95.73 35.35" style="enable-background:new 0 0 95.73 35.35;" xml:space="preserve">
<style type="text/css">
	.st0{fill:url(#SVGID_1_);}
	.st1{fill:url(#SVGID_2_);}
	.st2{fill:url(#SVGID_3_);}
	.st3{fill:url(#SVGID_4_);}
	.st4{fill:url(#SVGID_5_);}
	.st5{fill:url(#SVGID_6_);}
	.st6{fill:url(#SVGID_7_);}
	.st7{fill:url(#SVGID_8_);}
	.st8{fill:url(#SVGID_9_);}
	.st9{fill:url(#SVGID_10_);}
	.st10{fill:url(#SVGID_11_);}
	.st11{fill:url(#SVGID_12_);}
	.st12{fill:url(#SVGID_13_);}
	.st13{fill:url(#SVGID_14_);}
	.st14{fill:#010101;}
</style>
<g>
	<g>
		<g>
			
				<linearGradient id="SVGID_1_" gradientUnits="userSpaceOnUse" x1="24.3746" y1="-81.2513" x2="10.6708" y2="-81.2513" gradientTransform="matrix(0.9852 -0.1715 0.1715 0.9852 4.4667 93.3599)">
				<stop  offset="0.0238" style="stop-color:#A8792B"/>
				<stop  offset="0.5767" style="stop-color:#FAAF43"/>
				<stop  offset="1" style="stop-color:#876126"/>
			</linearGradient>
			<path class="st0" d="M2.32,18.43c-0.07-0.07-0.1-0.16-0.1-0.26L2.27,3.84c0-0.1,0.03-0.19,0.1-0.26
				c0.07-0.07,0.15-0.11,0.26-0.11L8.85,3.5c1,0,1.93,0.25,2.79,0.73c0.86,0.48,1.54,1.14,2.04,1.96c0.5,0.83,0.75,1.72,0.74,2.68
				c0,0.96-0.26,1.85-0.76,2.68c-0.5,0.82-1.19,1.47-2.05,1.95c-0.86,0.48-1.8,0.72-2.8,0.71L5.22,14.2L5.2,18.18
				c0,0.1-0.03,0.19-0.1,0.26c-0.07,0.07-0.15,0.11-0.26,0.11l-2.27-0.01C2.47,18.54,2.39,18.5,2.32,18.43z M8.82,11.33
				c0.72,0,1.33-0.24,1.84-0.71c0.51-0.48,0.77-1.06,0.77-1.75c0-0.69-0.25-1.28-0.76-1.77c-0.51-0.49-1.12-0.74-1.84-0.74
				L5.25,6.35l-0.02,4.97L8.82,11.33z"/>
			
				<linearGradient id="SVGID_2_" gradientUnits="userSpaceOnUse" x1="17.5224" y1="-73.5891" x2="17.5224" y2="-88.9134" gradientTransform="matrix(0.9852 -0.1715 0.1715 0.9852 4.4667 93.3599)">
				<stop  offset="0.0238" style="stop-color:#A8792B"/>
				<stop  offset="0.5767" style="stop-color:#FAAF43"/>
				<stop  offset="1" style="stop-color:#876126"/>
			</linearGradient>
			<path class="st1" d="M4.85,18.59C4.84,18.59,4.84,18.59,4.85,18.59l-2.27-0.01c-0.12,0-0.22-0.04-0.29-0.12l0,0
				c-0.07-0.08-0.11-0.18-0.11-0.29L2.22,3.84c0-0.11,0.04-0.21,0.11-0.29c0.08-0.08,0.18-0.12,0.29-0.12c0,0,0,0,0,0l6.22,0.02
				c1.01,0,1.95,0.25,2.82,0.74c0.86,0.49,1.55,1.15,2.05,1.98c0.5,0.83,0.75,1.74,0.75,2.7c0,0.96-0.26,1.87-0.77,2.7
				c-0.51,0.83-1.2,1.49-2.07,1.97c-0.87,0.48-1.81,0.72-2.82,0.72l-3.54-0.01l-0.01,3.94c0,0.11-0.04,0.21-0.11,0.29
				C5.06,18.55,4.96,18.59,4.85,18.59z M2.63,3.52c-0.09,0-0.16,0.03-0.22,0.09C2.35,3.68,2.32,3.75,2.32,3.84L2.27,18.17
				c0,0.09,0.03,0.17,0.09,0.23l0,0c0.06,0.06,0.13,0.09,0.22,0.09l2.27,0.01c0,0,0,0,0,0c0.09,0,0.16-0.03,0.22-0.09
				c0.06-0.06,0.09-0.14,0.09-0.23l0.02-4.02l3.64,0.01c0.99,0,1.92-0.23,2.77-0.71c0.85-0.47,1.53-1.12,2.03-1.94
				c0.5-0.81,0.75-1.71,0.76-2.65c0-0.95-0.24-1.84-0.74-2.66c-0.49-0.82-1.17-1.47-2.02-1.95c-0.85-0.48-1.78-0.72-2.77-0.72
				L2.63,3.52C2.63,3.52,2.63,3.52,2.63,3.52z M8.83,11.37C8.83,11.37,8.82,11.37,8.83,11.37l-3.65-0.01L5.2,6.31l3.64,0.01
				c0.73,0,1.36,0.25,1.87,0.75c0.51,0.5,0.77,1.1,0.77,1.8c0,0.7-0.27,1.3-0.78,1.78C10.18,11.13,9.56,11.37,8.83,11.37z
				 M8.82,11.29C8.82,11.29,8.83,11.29,8.82,11.29c0.71,0,1.31-0.24,1.81-0.7c0.5-0.47,0.75-1.05,0.76-1.72
				c0-0.67-0.25-1.26-0.74-1.74c-0.5-0.48-1.1-0.72-1.8-0.72L5.3,6.39l-0.02,4.88L8.82,11.29z"/>
		</g>
		<g>
			
				<linearGradient id="SVGID_3_" gradientUnits="userSpaceOnUse" x1="37.3485" y1="-78.1748" x2="23.6446" y2="-78.1748" gradientTransform="matrix(0.9852 -0.1715 0.1715 0.9852 4.4667 93.3599)">
				<stop  offset="0.0238" style="stop-color:#A8792B"/>
				<stop  offset="0.5767" style="stop-color:#FAAF43"/>
				<stop  offset="1" style="stop-color:#876126"/>
			</linearGradient>
			<path class="st2" d="M15.49,18.47c-0.07-0.07-0.1-0.16-0.1-0.26l0.05-14.33c0-0.1,0.03-0.19,0.1-0.26
				c0.07-0.07,0.15-0.11,0.26-0.11l6.22,0.02c1,0,1.93,0.25,2.79,0.73c0.86,0.48,1.54,1.14,2.04,1.96c0.5,0.83,0.75,1.72,0.74,2.68
				c-0.01,2.02-1.02,3.61-3.05,4.77l2.68,4.4c0.03,0.03,0.04,0.09,0.04,0.17c0,0.07-0.02,0.13-0.05,0.17
				c-0.06,0.13-0.17,0.19-0.31,0.19l-2.6-0.01c-0.13,0-0.25-0.06-0.34-0.17l-2.54-4.18l-3.03-0.01l-0.02,3.98
				c0,0.1-0.03,0.19-0.1,0.26c-0.07,0.07-0.15,0.11-0.26,0.11l-2.27-0.01C15.65,18.58,15.56,18.55,15.49,18.47z M22,11.37
				c0.72,0,1.33-0.24,1.83-0.71c0.5-0.48,0.76-1.06,0.76-1.75s-0.25-1.28-0.75-1.77c-0.5-0.49-1.11-0.73-1.83-0.74l-3.59-0.01
				l-0.02,4.97L22,11.37z"/>
			
				<linearGradient id="SVGID_4_" gradientUnits="userSpaceOnUse" x1="30.4962" y1="-69.7362" x2="30.4962" y2="-86.6132" gradientTransform="matrix(0.9852 -0.1715 0.1715 0.9852 4.4667 93.3599)">
				<stop  offset="0.0238" style="stop-color:#A8792B"/>
				<stop  offset="0.5767" style="stop-color:#FAAF43"/>
				<stop  offset="1" style="stop-color:#876126"/>
			</linearGradient>
			<path class="st3" d="M26.91,18.66C26.91,18.66,26.91,18.66,26.91,18.66l-2.61-0.01c-0.15,0-0.28-0.06-0.38-0.19L21.4,14.3
				l-2.95-0.01l-0.01,3.94c0,0.11-0.04,0.21-0.11,0.29c-0.08,0.08-0.18,0.12-0.29,0.12c0,0,0,0,0,0l-2.27-0.01
				c-0.12,0-0.22-0.04-0.29-0.12v0c-0.07-0.08-0.11-0.18-0.11-0.29L15.4,3.89c0-0.11,0.04-0.21,0.11-0.29
				c0.08-0.08,0.18-0.12,0.29-0.12c0,0,0,0,0,0l6.22,0.02c1.01,0,1.95,0.25,2.82,0.74c0.86,0.49,1.55,1.15,2.05,1.98
				c0.5,0.83,0.75,1.74,0.75,2.7c-0.01,2.02-1.03,3.62-3.03,4.78l2.65,4.36c0.03,0.03,0.05,0.1,0.05,0.19c0,0.08-0.02,0.15-0.05,0.2
				C27.2,18.59,27.08,18.66,26.91,18.66z M18.35,14.2l3.11,0.01l0.01,0.02l2.54,4.18c0.08,0.1,0.17,0.15,0.29,0.15l2.6,0.01
				c0,0,0,0,0,0c0.13,0,0.22-0.05,0.27-0.17c0.03-0.04,0.04-0.09,0.04-0.15c0-0.1-0.02-0.13-0.03-0.14l-2.71-4.44l0.04-0.02
				c2-1.14,3.02-2.73,3.03-4.73c0-0.95-0.24-1.84-0.74-2.66c-0.49-0.82-1.17-1.47-2.02-1.95c-0.85-0.48-1.78-0.72-2.77-0.72
				l-6.22-0.02c0,0,0,0,0,0c-0.09,0-0.16,0.03-0.22,0.09C15.53,3.72,15.5,3.8,15.5,3.89l-0.05,14.33c0,0.09,0.03,0.17,0.09,0.23
				c0.06,0.06,0.13,0.09,0.22,0.09l2.27,0.01c0,0,0,0,0,0c0.09,0,0.16-0.03,0.22-0.09c0.06-0.06,0.09-0.14,0.09-0.23L18.35,14.2z
				 M22.01,11.42C22,11.42,22,11.42,22.01,11.42l-3.65-0.01l0.02-5.06l3.64,0.01c0.73,0,1.35,0.26,1.86,0.75
				c0.51,0.5,0.76,1.1,0.76,1.8c0,0.7-0.26,1.3-0.77,1.78C23.36,11.17,22.73,11.42,22.01,11.42z M22,11.33
				C22,11.33,22,11.33,22,11.33c0.71,0,1.31-0.24,1.8-0.7c0.49-0.47,0.74-1.05,0.75-1.72c0-0.67-0.24-1.26-0.73-1.74
				c-0.49-0.48-1.09-0.72-1.79-0.72l-3.54-0.01l-0.02,4.88L22,11.33z"/>
		</g>
		<g>
			
				<linearGradient id="SVGID_5_" gradientUnits="userSpaceOnUse" x1="47.8309" y1="-76.1331" x2="36.7075" y2="-76.1331" gradientTransform="matrix(0.9852 -0.1715 0.1715 0.9852 4.4667 93.3599)">
				<stop  offset="0.0238" style="stop-color:#A8792B"/>
				<stop  offset="0.5767" style="stop-color:#FAAF43"/>
				<stop  offset="1" style="stop-color:#876126"/>
			</linearGradient>
			<path class="st4" d="M37.29,15.9c0.07,0.07,0.11,0.16,0.11,0.26l-0.01,2.13c0,0.1-0.03,0.19-0.1,0.26
				c-0.07,0.07-0.16,0.11-0.28,0.11l-7.97-0.03c-0.1,0-0.19-0.04-0.27-0.11c-0.07-0.07-0.11-0.16-0.11-0.26l0.05-14.35
				c0-0.1,0.04-0.18,0.11-0.25c0.08-0.06,0.17-0.1,0.27-0.1l7.97,0.03c0.1,0,0.19,0.03,0.27,0.1c0.07,0.06,0.11,0.15,0.11,0.25
				l-0.01,2.15c0,0.1-0.04,0.19-0.11,0.26c-0.08,0.07-0.17,0.11-0.27,0.11l-5.36-0.02l-0.01,3.25l4.85,0.02
				c0.1,0,0.19,0.03,0.26,0.1c0.07,0.06,0.1,0.15,0.1,0.25l-0.01,2.15c0,0.1-0.03,0.18-0.1,0.25c-0.07,0.06-0.15,0.1-0.26,0.1
				l-4.85-0.02l-0.01,3.25l5.36,0.02C37.12,15.79,37.21,15.82,37.29,15.9z"/>
			
				<linearGradient id="SVGID_6_" gradientUnits="userSpaceOnUse" x1="42.2692" y1="-67.972" x2="42.2692" y2="-84.2933" gradientTransform="matrix(0.9852 -0.1715 0.1715 0.9852 4.4667 93.3599)">
				<stop  offset="0.0238" style="stop-color:#A8792B"/>
				<stop  offset="0.5767" style="stop-color:#FAAF43"/>
				<stop  offset="1" style="stop-color:#876126"/>
			</linearGradient>
			<path class="st5" d="M37.01,18.69C37.01,18.69,37.01,18.69,37.01,18.69l-7.97-0.03c-0.12,0-0.22-0.04-0.3-0.12
				c-0.08-0.08-0.12-0.18-0.12-0.29l0.05-14.35c0-0.11,0.04-0.21,0.13-0.28c0.08-0.07,0.19-0.11,0.3-0.11l7.97,0.03
				c0.12,0,0.22,0.04,0.3,0.11c0.08,0.07,0.13,0.17,0.13,0.28l-0.01,2.15c0,0.11-0.04,0.21-0.13,0.29c-0.08,0.08-0.19,0.12-0.3,0.12
				c0,0,0,0,0,0l-5.32-0.02l-0.01,3.16l4.8,0.01c0.12,0,0.22,0.04,0.29,0.11c0.08,0.07,0.11,0.17,0.11,0.28l-0.01,2.15
				c0,0.11-0.04,0.2-0.12,0.28c-0.08,0.07-0.17,0.11-0.29,0.11c0,0,0,0,0,0l-4.8-0.02l-0.01,3.16l5.32,0.02
				c0.12,0,0.22,0.04,0.3,0.12l0,0c0.08,0.08,0.12,0.18,0.12,0.29l-0.01,2.13c0,0.11-0.04,0.21-0.11,0.29
				C37.25,18.65,37.14,18.69,37.01,18.69z M29.1,3.61c-0.09,0-0.17,0.03-0.24,0.08c-0.07,0.06-0.1,0.13-0.1,0.22l-0.05,14.35
				c0,0.09,0.03,0.16,0.1,0.23c0.07,0.06,0.14,0.09,0.23,0.09l7.97,0.03c0,0,0,0,0,0c0.11,0,0.18-0.03,0.24-0.09
				c0.06-0.06,0.09-0.14,0.09-0.23l0.01-2.13c0-0.09-0.03-0.16-0.1-0.23c-0.07-0.06-0.14-0.09-0.23-0.09l-5.41-0.02l0.01-3.34
				l4.9,0.02c0,0,0,0,0,0c0.09,0,0.16-0.03,0.22-0.08c0.06-0.06,0.09-0.13,0.09-0.22l0.01-2.15c0-0.09-0.03-0.16-0.09-0.22
				c-0.06-0.06-0.13-0.08-0.22-0.08l-4.9-0.02l0.01-3.34l5.41,0.02c0,0,0,0,0,0c0.09,0,0.17-0.03,0.23-0.09
				c0.07-0.06,0.1-0.14,0.1-0.23l0.01-2.15c0-0.09-0.03-0.16-0.1-0.22c-0.07-0.06-0.14-0.09-0.24-0.09L29.1,3.61
				C29.1,3.61,29.1,3.61,29.1,3.61z"/>
		</g>
		<g>
			
				<linearGradient id="SVGID_7_" gradientUnits="userSpaceOnUse" x1="64.7073" y1="-73.4119" x2="46.3827" y2="-73.4119" gradientTransform="matrix(0.9852 -0.1715 0.1715 0.9852 4.4667 93.3599)">
				<stop  offset="0.0238" style="stop-color:#A8792B"/>
				<stop  offset="0.5767" style="stop-color:#FAAF43"/>
				<stop  offset="1" style="stop-color:#876126"/>
			</linearGradient>
			<path class="st6" d="M53.65,18.62c-0.07-0.06-0.11-0.13-0.12-0.22l-1.11-8.31l-2.79,8.34c-0.05,0.17-0.17,0.26-0.36,0.26
				l-3.52-0.01c-0.19,0-0.31-0.09-0.36-0.26l-2.73-8.36l-1.18,8.3c-0.05,0.2-0.17,0.3-0.38,0.3l-2.24-0.01
				c-0.12,0-0.21-0.04-0.28-0.13c-0.07-0.09-0.09-0.18-0.08-0.28l2.03-14.28c0.02-0.09,0.06-0.16,0.12-0.23
				c0.07-0.06,0.15-0.1,0.24-0.1l2.49-0.04c0.19,0,0.31,0.09,0.36,0.26l3.77,11.54l3.86-11.52c0.08-0.17,0.2-0.26,0.38-0.26
				l2.49,0.05c0.09,0.01,0.17,0.05,0.24,0.11c0.07,0.06,0.11,0.13,0.12,0.22l1.92,14.29l0,0.04c0,0.1-0.03,0.19-0.1,0.26
				c-0.07,0.07-0.15,0.11-0.26,0.11l-2.24-0.01C53.81,18.7,53.72,18.67,53.65,18.62z"/>
			
				<linearGradient id="SVGID_8_" gradientUnits="userSpaceOnUse" x1="55.545" y1="-64.6312" x2="55.545" y2="-82.1927" gradientTransform="matrix(0.9852 -0.1715 0.1715 0.9852 4.4667 93.3599)">
				<stop  offset="0.0238" style="stop-color:#A8792B"/>
				<stop  offset="0.5767" style="stop-color:#FAAF43"/>
				<stop  offset="1" style="stop-color:#876126"/>
			</linearGradient>
			<path class="st7" d="M56.16,18.75C56.16,18.75,56.16,18.75,56.16,18.75l-2.25-0.01c-0.12,0-0.21-0.03-0.29-0.1l0,0
				c-0.08-0.06-0.12-0.15-0.14-0.24l-1.09-8.1l-2.73,8.14c-0.05,0.19-0.19,0.29-0.4,0.29c0,0,0,0,0,0l-3.52-0.01
				c-0.22,0-0.36-0.1-0.4-0.29l-2.66-8.16l-1.15,8.1c-0.05,0.22-0.2,0.34-0.43,0.34c0,0,0,0,0,0l-2.24-0.01
				c-0.14,0-0.24-0.05-0.32-0.15c-0.07-0.1-0.1-0.2-0.09-0.31l2.03-14.28c0.02-0.1,0.06-0.18,0.14-0.25
				c0.08-0.07,0.17-0.11,0.27-0.11c0,0,0,0,0,0l2.49-0.04c0.22,0,0.36,0.1,0.41,0.29l3.73,11.4l3.81-11.38
				c0.08-0.19,0.23-0.29,0.43-0.29c0,0,0,0,0,0l2.49,0.05c0.11,0.02,0.19,0.06,0.27,0.12c0.07,0.06,0.12,0.15,0.14,0.24l1.92,14.29
				l0,0.05c0,0.11-0.04,0.21-0.11,0.29C56.37,18.71,56.28,18.75,56.16,18.75z M52.44,9.88l1.14,8.51c0.01,0.07,0.05,0.14,0.11,0.19
				l0,0c0.06,0.05,0.13,0.07,0.23,0.07l2.24,0.01c0.09,0,0.16-0.03,0.22-0.09c0.06-0.06,0.09-0.14,0.09-0.23l0-0.04L54.55,4.02
				c-0.01-0.08-0.05-0.14-0.11-0.19c-0.06-0.05-0.13-0.08-0.21-0.1l-2.48-0.05c0,0,0,0,0,0c-0.16,0-0.27,0.08-0.34,0.23l-3.9,11.66
				L43.69,3.88c-0.04-0.16-0.14-0.23-0.31-0.23l-2.49,0.04c0,0,0,0,0,0c-0.08,0-0.14,0.03-0.2,0.08c-0.06,0.06-0.1,0.13-0.11,0.2
				l-2.03,14.28c-0.01,0.09,0.01,0.17,0.07,0.25c0.06,0.07,0.14,0.11,0.24,0.11l2.24,0.01c0,0,0,0,0,0c0.19,0,0.29-0.08,0.33-0.27
				l1.2-8.5l2.79,8.55c0.04,0.16,0.14,0.23,0.31,0.23l3.52,0.01c0,0,0,0,0,0c0.17,0,0.27-0.07,0.31-0.22L52.44,9.88z"/>
		</g>
		<g>
			
				<linearGradient id="SVGID_9_" gradientUnits="userSpaceOnUse" x1="71.0339" y1="-71.5194" x2="65.5503" y2="-71.5194" gradientTransform="matrix(0.9852 -0.1715 0.1715 0.9852 4.4667 93.3599)">
				<stop  offset="0.0238" style="stop-color:#A8792B"/>
				<stop  offset="0.5767" style="stop-color:#FAAF43"/>
				<stop  offset="1" style="stop-color:#876126"/>
			</linearGradient>
			<path class="st8" d="M60.9,3.77c0.07,0.07,0.11,0.16,0.11,0.26l-0.05,14.33c0,0.1-0.04,0.19-0.11,0.26
				c-0.08,0.07-0.17,0.11-0.27,0.11l-2.24-0.01c-0.1,0-0.19-0.04-0.27-0.11c-0.07-0.07-0.11-0.16-0.11-0.26l0.05-14.33
				c0-0.1,0.04-0.19,0.11-0.26c0.08-0.07,0.17-0.11,0.27-0.11l2.24,0.01C60.74,3.66,60.83,3.7,60.9,3.77z"/>
			
				<linearGradient id="SVGID_10_" gradientUnits="userSpaceOnUse" x1="68.2921" y1="-63.8591" x2="68.2921" y2="-79.1797" gradientTransform="matrix(0.9852 -0.1715 0.1715 0.9852 4.4667 93.3599)">
				<stop  offset="0.0238" style="stop-color:#A8792B"/>
				<stop  offset="0.5767" style="stop-color:#FAAF43"/>
				<stop  offset="1" style="stop-color:#876126"/>
			</linearGradient>
			<path class="st9" d="M60.58,18.77C60.58,18.77,60.58,18.77,60.58,18.77l-2.25-0.01c-0.12,0-0.22-0.04-0.3-0.12
				c-0.08-0.08-0.12-0.18-0.12-0.29l0.05-14.33c0-0.11,0.04-0.21,0.13-0.29c0.08-0.08,0.19-0.12,0.3-0.12c0,0,0,0,0,0l2.24,0.01
				c0.12,0,0.22,0.04,0.3,0.12v0c0.08,0.08,0.12,0.18,0.12,0.29l-0.05,14.33c0,0.11-0.04,0.21-0.13,0.29
				C60.8,18.73,60.7,18.77,60.58,18.77z M58.39,3.7c-0.09,0-0.17,0.03-0.23,0.09c-0.07,0.06-0.1,0.14-0.1,0.23L58,18.35
				c0,0.09,0.03,0.16,0.1,0.23c0.07,0.06,0.14,0.09,0.23,0.09l2.24,0.01c0,0,0,0,0,0c0.09,0,0.17-0.03,0.23-0.09
				c0.07-0.06,0.1-0.14,0.1-0.23l0.05-14.33c0-0.09-0.03-0.16-0.1-0.23c-0.07-0.06-0.14-0.09-0.23-0.09L58.39,3.7
				C58.39,3.7,58.39,3.7,58.39,3.7z"/>
		</g>
		<g>
			
				<linearGradient id="SVGID_11_" gradientUnits="userSpaceOnUse" x1="84.3392" y1="-70.3393" x2="70.4573" y2="-70.3393" gradientTransform="matrix(0.9852 -0.1715 0.1715 0.9852 4.4667 93.3599)">
				<stop  offset="0.0238" style="stop-color:#A8792B"/>
				<stop  offset="0.5767" style="stop-color:#FAAF43"/>
				<stop  offset="1" style="stop-color:#876126"/>
			</linearGradient>
			<path class="st10" d="M74.42,3.81c0.07,0.07,0.11,0.16,0.11,0.26L74.49,13c0,0.79-0.16,1.55-0.48,2.27
				c-0.32,0.72-0.77,1.37-1.35,1.94c-0.59,0.56-1.26,0.99-2.03,1.3c-0.76,0.31-1.56,0.46-2.38,0.45c-0.82,0-1.61-0.16-2.37-0.47
				c-0.75-0.31-1.42-0.75-2-1.31c-0.58-0.58-1.03-1.23-1.34-1.95c-0.31-0.72-0.47-1.48-0.46-2.27l0.03-8.93
				c0-0.11,0.04-0.2,0.11-0.27c0.08-0.06,0.17-0.1,0.27-0.1l2.24,0.01c0.12,0,0.22,0.03,0.29,0.1c0.07,0.06,0.11,0.15,0.11,0.27
				l-0.03,8.93c0,0.4,0.08,0.79,0.24,1.17c0.16,0.38,0.39,0.71,0.69,1c0.28,0.29,0.62,0.51,1.01,0.67c0.39,0.16,0.79,0.24,1.21,0.24
				c0.42,0,0.83-0.08,1.22-0.23c0.4-0.16,0.75-0.38,1.05-0.66c0.3-0.29,0.53-0.62,0.7-1c0.17-0.38,0.25-0.77,0.25-1.17l0.03-8.93
				c0-0.1,0.03-0.19,0.1-0.26c0.07-0.07,0.15-0.11,0.26-0.11l2.27,0.01C74.25,3.71,74.34,3.74,74.42,3.81z"/>
			
				<linearGradient id="SVGID_12_" gradientUnits="userSpaceOnUse" x1="77.3985" y1="-62.2157" x2="77.3985" y2="-78.4625" gradientTransform="matrix(0.9852 -0.1715 0.1715 0.9852 4.4667 93.3599)">
				<stop  offset="0.0238" style="stop-color:#A8792B"/>
				<stop  offset="0.5767" style="stop-color:#FAAF43"/>
				<stop  offset="1" style="stop-color:#876126"/>
			</linearGradient>
			<path class="st11" d="M68.27,19.01c-0.01,0-0.01,0-0.02,0c-0.83,0-1.63-0.16-2.39-0.47c-0.76-0.31-1.44-0.75-2.02-1.32
				c-0.58-0.58-1.04-1.24-1.35-1.97c-0.31-0.73-0.47-1.5-0.47-2.29l0.03-8.93c0-0.13,0.04-0.23,0.13-0.3
				c0.08-0.07,0.18-0.11,0.3-0.11l2.24,0.01c0.13,0,0.24,0.04,0.32,0.11c0.08,0.07,0.13,0.17,0.13,0.3l-0.03,8.93
				c0,0.39,0.08,0.78,0.24,1.16c0.16,0.37,0.39,0.71,0.68,0.99c0.28,0.28,0.61,0.5,0.99,0.66c0.38,0.16,0.78,0.24,1.19,0.24
				c0.41,0,0.82-0.08,1.21-0.23c0.39-0.15,0.74-0.37,1.03-0.65c0.29-0.28,0.53-0.61,0.69-0.98c0.16-0.37,0.25-0.76,0.25-1.16
				l0.03-8.93c0-0.11,0.04-0.21,0.11-0.29c0.08-0.08,0.18-0.12,0.29-0.12c0,0,0,0,0,0l2.27,0.01c0.12,0,0.22,0.04,0.3,0.12l0,0
				c0.08,0.08,0.12,0.18,0.12,0.29L74.54,13c0,0.79-0.17,1.56-0.48,2.28c-0.32,0.73-0.78,1.38-1.36,1.96
				c-0.59,0.56-1.27,1-2.04,1.31C69.89,18.85,69.09,19.01,68.27,19.01z M62.5,3.71c-0.09,0-0.17,0.03-0.24,0.08
				c-0.07,0.06-0.1,0.13-0.1,0.24l-0.03,8.93c0,0.78,0.15,1.54,0.46,2.25c0.31,0.72,0.76,1.37,1.33,1.94
				c0.57,0.55,1.24,0.99,1.99,1.3c0.75,0.31,1.53,0.46,2.35,0.47c0.01,0,0.01,0,0.02,0c0.81,0,1.59-0.15,2.34-0.45
				c0.76-0.3,1.43-0.73,2.01-1.29c0.58-0.56,1.03-1.21,1.34-1.93c0.31-0.71,0.47-1.47,0.48-2.25l0.03-8.93
				c0-0.09-0.03-0.16-0.1-0.23c-0.07-0.06-0.14-0.09-0.23-0.09l-2.27-0.01c0,0,0,0,0,0c-0.09,0-0.16,0.03-0.22,0.09
				c-0.06,0.06-0.09,0.14-0.09,0.23l-0.03,8.93c0,0.4-0.09,0.8-0.25,1.19c-0.17,0.38-0.41,0.72-0.71,1.01
				c-0.3,0.29-0.66,0.52-1.06,0.67c-0.4,0.16-0.82,0.24-1.24,0.24c-0.42,0-0.84-0.08-1.23-0.24c-0.39-0.16-0.74-0.39-1.02-0.68
				c-0.3-0.29-0.54-0.63-0.7-1.02c-0.16-0.38-0.25-0.78-0.25-1.19l0.03-8.93c0-0.1-0.03-0.18-0.1-0.24
				c-0.07-0.06-0.15-0.09-0.26-0.09L62.5,3.71C62.5,3.71,62.5,3.71,62.5,3.71z"/>
		</g>
		<g>
			
				<linearGradient id="SVGID_13_" gradientUnits="userSpaceOnUse" x1="101.131" y1="-66.954" x2="82.8065" y2="-66.954" gradientTransform="matrix(0.9852 -0.1715 0.1715 0.9852 4.4667 93.3599)">
				<stop  offset="0.0238" style="stop-color:#A8792B"/>
				<stop  offset="0.5767" style="stop-color:#FAAF43"/>
				<stop  offset="1" style="stop-color:#876126"/>
			</linearGradient>
			<path class="st12" d="M90.65,18.73c-0.07-0.06-0.11-0.13-0.12-0.22l-1.11-8.31l-2.79,8.34c-0.05,0.17-0.17,0.26-0.36,0.26
				l-3.52-0.01c-0.19,0-0.31-0.09-0.36-0.26l-2.73-8.36l-1.18,8.3c-0.05,0.2-0.17,0.3-0.38,0.3l-2.24-0.01
				c-0.12,0-0.21-0.04-0.28-0.13c-0.07-0.09-0.09-0.18-0.08-0.28l2.03-14.28c0.02-0.09,0.06-0.16,0.12-0.23
				c0.07-0.06,0.15-0.1,0.24-0.1l2.49-0.04c0.19,0,0.31,0.09,0.36,0.26l3.77,11.54l3.86-11.52c0.08-0.17,0.2-0.26,0.38-0.26
				l2.49,0.05c0.09,0.01,0.17,0.05,0.24,0.11c0.07,0.06,0.11,0.13,0.12,0.22l1.92,14.29l0,0.04c0,0.1-0.03,0.19-0.1,0.26
				c-0.07,0.07-0.15,0.11-0.26,0.11l-2.24-0.01C90.8,18.82,90.71,18.79,90.65,18.73z"/>
			
				<linearGradient id="SVGID_14_" gradientUnits="userSpaceOnUse" x1="91.9687" y1="-58.1732" x2="91.9687" y2="-75.7348" gradientTransform="matrix(0.9852 -0.1715 0.1715 0.9852 4.4667 93.3599)">
				<stop  offset="0.0238" style="stop-color:#A8792B"/>
				<stop  offset="0.5767" style="stop-color:#FAAF43"/>
				<stop  offset="1" style="stop-color:#876126"/>
			</linearGradient>
			<path class="st13" d="M93.15,18.87C93.15,18.87,93.15,18.87,93.15,18.87l-2.25-0.01c-0.12,0-0.22-0.03-0.29-0.1
				c-0.08-0.06-0.12-0.15-0.14-0.24l-1.09-8.1l-2.73,8.14c-0.05,0.19-0.19,0.29-0.4,0.29c0,0,0,0,0,0l-3.52-0.01
				c-0.22,0-0.36-0.1-0.4-0.29l-2.66-8.16l-1.15,8.1c-0.05,0.22-0.2,0.34-0.43,0.34c0,0,0,0,0,0l-2.24-0.01
				c-0.14,0-0.24-0.05-0.32-0.15c-0.07-0.1-0.1-0.2-0.09-0.31l2.03-14.28c0.02-0.1,0.06-0.18,0.14-0.25
				c0.08-0.07,0.17-0.11,0.27-0.11c0,0,0,0,0,0l2.49-0.04c0.22,0,0.36,0.1,0.41,0.29l3.73,11.4L88.31,4
				c0.08-0.19,0.23-0.29,0.43-0.29c0,0,0,0,0,0l2.49,0.05c0.11,0.02,0.19,0.06,0.27,0.12c0.07,0.06,0.12,0.14,0.14,0.24l1.92,14.29
				l0,0.05c0,0.11-0.04,0.21-0.11,0.29C93.37,18.83,93.27,18.87,93.15,18.87z M89.43,10l1.14,8.51c0.01,0.07,0.05,0.14,0.11,0.19
				l0,0c0.06,0.05,0.13,0.07,0.23,0.07l2.24,0.01c0,0,0,0,0,0c0.09,0,0.16-0.03,0.22-0.09c0.06-0.06,0.09-0.14,0.09-0.23l0-0.04
				L91.54,4.13c-0.01-0.08-0.05-0.14-0.11-0.19c-0.06-0.05-0.13-0.08-0.21-0.1L88.74,3.8c-0.16,0-0.27,0.07-0.34,0.23l-3.9,11.65
				L80.68,4c-0.04-0.16-0.14-0.23-0.31-0.23L77.87,3.8c0,0,0,0,0,0c-0.08,0-0.14,0.03-0.2,0.08c-0.06,0.06-0.1,0.13-0.11,0.2
				l-2.03,14.28c-0.01,0.09,0.01,0.17,0.07,0.25c0.06,0.07,0.14,0.11,0.24,0.11l2.24,0.01c0,0,0,0,0,0c0.19,0,0.29-0.08,0.33-0.27
				l1.2-8.5l2.79,8.55c0.04,0.16,0.14,0.23,0.31,0.23l3.52,0.01c0,0,0,0,0,0c0.17,0,0.27-0.07,0.31-0.22L89.43,10z"/>
		</g>
	</g>
	<g>
		<path class="st14" d="M47.49,27.44c1.3,0,2.51-0.59,3.32-1.6c0.18-0.22,0.32-0.46,0.46-0.7c0.09-0.13,0.23-0.34,0.4-0.34
			c0.13,0,0.24,0.12,0.24,0.25c0,0.13-0.12,0.36-0.2,0.48c-0.92,1.59-2.79,2.77-4.64,2.76c-2.7-0.01-4.1-2.39-4.09-4.85
			c0.01-2.73,1.75-6.72,4.95-6.71c1.21,0,2.04,0.92,2.04,2.11c0,0.54-0.16,2.13-0.59,2.45c-0.1,0.07-0.24,0.1-0.36,0.1
			c-0.18,0-0.37-0.05-0.37-0.27c0-0.22,0.26-0.73,0.33-0.98c0.12-0.4,0.2-0.86,0.2-1.28c0-0.69-0.4-1.28-1.13-1.29
			c-2.16-0.01-3.39,4.15-3.39,5.88C44.66,25.39,45.13,27.44,47.49,27.44z"/>
		<path class="st14" d="M51.5,23.68c0.01-2.07,0.33-4.16,1.15-6.07c0.32-0.72,1.17-2.19,2.07-2.19c0.7,0,0.89,0.78,0.89,1.35
			c-0.01,1.87-0.99,4.52-1.89,6.14c-0.21,0.4-0.48,0.76-0.72,1.15c-0.07,0.12-0.21,0.3-0.26,0.43c-0.06,0.16-0.06,0.48-0.06,0.66
			c0,0.58,0.11,2.36,0.93,2.36c0.73,0,1.75-1.23,2.13-1.81l0.39-0.61c0.08-0.12,0.16-0.21,0.31-0.21c0.16,0,0.21,0.14,0.21,0.27
			c0,0.18-0.11,0.36-0.21,0.52l-0.01,0.01c-0.59,0.97-1.89,2.72-3.13,2.72C51.65,28.4,51.5,24.85,51.5,23.68z M53.52,18.18
			c-0.44,1.43-0.86,3.07-0.87,4.5c0,0.15,0,0.28,0.01,0.43c0.98-1.62,2.31-4.53,2.32-6.42c0-0.13,0-0.55-0.22-0.55
			C54.14,16.14,53.69,17.63,53.52,18.18z"/>
		<path class="st14" d="M56.21,26c0-1.34,1.1-4.19,2.72-4.18c0.54,0,0.83,0.38,0.83,0.9c0,1-1.41,2.58-2.32,2.9
			c-0.05,0.21-0.08,0.42-0.08,0.63c0,0.67,0.26,1.09,0.97,1.09c1.25,0,2.26-1.07,2.86-2.06c0.09-0.15,0.24-0.39,0.45-0.39
			c0.09,0,0.21,0.06,0.21,0.16c0,0.19-0.05,0.28-0.14,0.45c-0.78,1.36-2.22,2.54-3.84,2.54C56.68,28.03,56.21,27.06,56.21,26z
			 M57.48,25.05c0.64-0.39,1.62-1.4,1.62-2.19c0-0.16-0.06-0.34-0.25-0.34C58.25,22.51,57.57,24.52,57.48,25.05z"/>
		<path class="st14" d="M67.99,26.07c-0.55,0.77-1.65,2.13-2.69,2.12c-0.98,0-1.1-1.62-1.1-2.32c-0.39,0.61-1.31,1.97-2.1,1.96
			c-0.73,0-0.89-0.99-0.89-1.56c0.01-1.57,1.64-4.29,3.39-4.29c0.21,0,0.49,0.26,0.49,0.46c0,0.09-0.08,0.13-0.15,0.18
			c-0.54,0.31-1.03,0.65-1.47,1.1c-0.78,0.79-1.27,1.8-1.28,2.92c0,0.12,0.01,0.36,0.19,0.36c0.67,0,1.93-2.63,2.22-3.25
			c0.11-0.22,0.23-0.45,0.51-0.45c0.15,0,0.34,0.05,0.34,0.24c0,0.21-0.2,0.64-0.27,0.86c-0.17,0.51-0.23,1.13-0.23,1.66
			c0,0.31,0.01,1.46,0.47,1.46c0.7,0,1.83-1.47,2.23-2.01c0,0,0.21-0.37,0.42-0.37c0.18,0,0.24,0.12,0.24,0.28
			C68.32,25.64,68.09,25.92,67.99,26.07z"/>
		<path class="st14" d="M67.85,28.04c0.01-1.46,0.4-3.07,0.7-4.5c0.09-0.46,0.17-0.94,0.27-1.4c0.08-0.36,0.49-0.71,0.87-0.71
			c0.34,0,0.45,0.2,0.45,0.51c0,0.51-0.21,1.12-0.39,1.6c-0.21,0.55-0.33,1.13-0.41,1.71c0,0,1.83-2.65,2.61-2.65
			c0.58,0,0.59,1.02,0.59,1.45l-0.01,2.09c0,0.34,0.01,0.9,0.47,0.9c0.79,0,1.72-1.4,2.07-2.05c0.08-0.13,0.2-0.34,0.36-0.34
			c0.15,0,0.25,0.17,0.25,0.3c0,0.07-0.08,0.22-0.11,0.3c-0.44,0.92-1.75,2.53-2.87,2.53c-0.93,0-1.09-1-1.08-1.75
			c0-0.07,0-0.15,0-0.22l0.07-1.7c0-0.07-0.01-0.3-0.13-0.3c-0.1,0-0.27,0.16-0.34,0.24c-0.49,0.48-0.94,1.16-1.3,1.74
			c-0.44,0.7-0.78,1.43-1.13,2.18c-0.12,0.24-0.33,0.48-0.61,0.48C67.95,28.41,67.85,28.23,67.85,28.04z"/>
		<path class="st14" d="M76.89,27.49c0.81,0,1.98-1.71,2.43-2.41c0.09-0.13,0.21-0.31,0.37-0.31c0.19,0,0.19,0.18,0.19,0.33
			c0,0.19-0.29,0.6-0.41,0.76c-0.57,0.8-1.84,2.38-2.9,2.38c-1.18,0-1.35-1.69-1.35-2.56c0-0.55,0.15-1.31,0.32-1.83
			c0.18-0.54,0.45-0.95,1.08-0.95c0.22,0,0.34,0.09,0.34,0.33c0,0.4-0.35,1.13-0.45,1.58c-0.09,0.43-0.14,0.88-0.14,1.33
			C76.37,26.47,76.38,27.48,76.89,27.49z M77.51,21.18c0,0.39-0.32,0.79-0.72,0.79c-0.31,0-0.51-0.27-0.51-0.57
			c0-0.37,0.3-0.79,0.7-0.79C77.3,20.61,77.51,20.88,77.51,21.18z"/>
		<path class="st14" d="M79.19,28.08c0.01-1.46,0.4-3.07,0.7-4.5c0.09-0.46,0.17-0.94,0.27-1.4c0.08-0.36,0.49-0.71,0.87-0.71
			c0.34,0,0.45,0.2,0.45,0.51c0,0.51-0.21,1.12-0.39,1.6c-0.21,0.55-0.33,1.13-0.41,1.71c0,0,1.83-2.65,2.61-2.65
			c0.58,0,0.59,1.02,0.59,1.45l-0.01,2.09c0,0.34,0.01,0.9,0.47,0.9c0.79,0,1.72-1.4,2.07-2.05c0.08-0.13,0.2-0.34,0.36-0.34
			c0.15,0,0.25,0.17,0.25,0.3c0,0.07-0.08,0.22-0.11,0.3c-0.44,0.92-1.75,2.53-2.87,2.53c-0.93,0-1.09-1-1.08-1.75
			c0-0.07,0-0.15,0-0.22l0.07-1.7c0-0.07-0.01-0.3-0.13-0.3c-0.1,0-0.27,0.16-0.34,0.24c-0.49,0.48-0.94,1.16-1.3,1.74
			c-0.44,0.7-0.78,1.43-1.13,2.17c-0.12,0.24-0.33,0.48-0.61,0.48C79.29,28.45,79.19,28.27,79.19,28.08z"/>
		<path class="st14" d="M88.53,23.75c-0.55,0.58-1.32,1.71-1.32,2.55c0,0.31,0.1,0.58,0.46,0.58c0.93,0,2.59-2.17,2.92-2.97
			c0.15-0.34,0.47-0.77,0.88-0.77c0.36,0,0.55,0.24,0.55,0.58c-0.01,2.57-0.27,9.65-3.94,9.64c-0.48,0-0.87-0.2-1.1-0.62
			c-0.04-0.09-0.09-0.18-0.09-0.28c0-0.18,0.14-0.36,0.33-0.36c0.37,0,0.25,0.64,0.8,0.64c1.91,0.01,2.69-5.17,2.69-6.62
			c0-0.4,0-0.81-0.04-1.21c-0.57,0.95-1.93,2.74-3.14,2.74c-0.82,0-1.09-0.69-1.08-1.41c0-1.09,0.65-2.3,1.41-3.05
			c0.75-0.74,1.72-1.17,2.78-1.17c0.42,0,1.63,0.27,1.62,0.83c0,0.09-0.09,0.15-0.16,0.15c-0.19,0-0.64-0.42-1.19-0.42
			C89.98,22.58,89.14,23.11,88.53,23.75z"/>
	</g>
</g>
</svg>
