<svg xmlns="http://www.w3.org/2000/svg" width="134.698" height="168.372" viewBox="0 0 134.698 168.372">
  <g id="Premium" transform="translate(-975.5 -320.628)">
    <path id="Icon_feather-shield" data-name="Icon feather-shield" d="M73.349,171.372S140.7,137.7,140.7,87.186V28.256L73.349,3,6,28.256v58.93C6,137.7,73.349,171.372,73.349,171.372Z" transform="translate(969.5 317.628)" fill="#444341"/>
    <path id="Icon_feather-shield-2" data-name="Icon feather-shield" d="M71.5,166.75S137,134,137,84.875V27.563L71.5,3,6,27.563V84.875C6,134,71.5,166.75,71.5,166.75Z" transform="translate(971.5 319.125)" fill="#aeaeae" opacity="0.6"/>
    <path id="Icon_awesome-car" data-name="Icon awesome-car" d="M81.926,22.852h-9.81l-2.727-6.816A18.259,18.259,0,0,0,52.352,4.5H31.542A18.264,18.264,0,0,0,14.5,16.035l-2.727,6.816H1.968A1.966,1.966,0,0,0,.06,25.295l.983,3.933a1.965,1.965,0,0,0,1.907,1.489H6.239a10.414,10.414,0,0,0-3.618,7.865v7.865a10.4,10.4,0,0,0,2.622,6.87v8.86a5.244,5.244,0,0,0,5.243,5.243H15.73a5.244,5.244,0,0,0,5.243-5.243V56.934H62.92v5.243a5.244,5.244,0,0,0,5.243,5.243h5.243a5.244,5.244,0,0,0,5.243-5.243v-8.86a10.4,10.4,0,0,0,2.622-6.87V38.582a10.418,10.418,0,0,0-3.616-7.865h3.289a1.965,1.965,0,0,0,1.907-1.489l.983-3.933a1.967,1.967,0,0,0-1.909-2.443ZM24.239,19.93a7.866,7.866,0,0,1,7.3-4.944h20.81a7.866,7.866,0,0,1,7.3,4.944L62.92,28.1H20.973l3.266-8.165ZM15.73,46.414a4.946,4.946,0,0,1-5.243-5.227A4.946,4.946,0,0,1,15.73,35.96c3.146,0,7.865,4.7,7.865,7.841S18.876,46.414,15.73,46.414Zm52.434,0c-3.146,0-7.865.523-7.865-2.614s4.719-7.841,7.865-7.841a4.946,4.946,0,0,1,5.243,5.227,4.946,4.946,0,0,1-5.243,5.227Z" transform="translate(1001.053 359.5)" fill="#fff"/>
    <path id="Icon_feather-shield-3" data-name="Icon feather-shield" d="M60.7,139.755s54.7-27.351,54.7-68.378V23.513L60.7,3,6,23.513V71.378C6,112.4,60.7,139.755,60.7,139.755Z" transform="translate(982.298 331.125)" fill="#444341" stroke="#fff" stroke-linecap="round" stroke-linejoin="round" stroke-width="2"/>
    <path id="Icon_awesome-car-alt" data-name="Icon awesome-car-alt" d="M62.045,25.48l-1.59-3.975-2.819-7.048A15.765,15.765,0,0,0,42.928,4.5H24.965a15.766,15.766,0,0,0-14.709,9.958L7.437,21.506,5.847,25.48A9.033,9.033,0,0,0,0,33.92v6.789A8.979,8.979,0,0,0,2.263,46.64v7.648a4.527,4.527,0,0,0,4.526,4.526h4.526a4.527,4.527,0,0,0,4.526-4.526V49.762H52.051v4.526a4.527,4.527,0,0,0,4.526,4.526H61.1a4.527,4.527,0,0,0,4.526-4.526V46.64a8.973,8.973,0,0,0,2.263-5.931V33.92A9.033,9.033,0,0,0,62.045,25.48ZM18.66,17.82a6.79,6.79,0,0,1,6.3-4.267H42.928a6.79,6.79,0,0,1,6.3,4.267l2.819,7.048H15.842L18.66,17.82ZM11.315,40.681a4.27,4.27,0,0,1-4.526-4.512,4.27,4.27,0,0,1,4.526-4.512c2.716,0,6.789,4.061,6.789,6.768S14.031,40.681,11.315,40.681Zm45.261,0c-2.716,0-6.789.451-6.789-2.256s4.074-6.768,6.789-6.768A4.27,4.27,0,0,1,61.1,36.169a4.27,4.27,0,0,1-4.526,4.512Z" transform="translate(1008.903 375.938)" fill="#fff"/>
    <g id="Group_1" data-name="Group 1" transform="translate(160.77 -5.656)">
      <path id="Polygon_1" data-name="Polygon 1" d="M10.078,0l2.379,7.7h7.7l-6.229,4.758,2.379,7.7L10.078,15.4,3.85,20.157l2.379-7.7L0,7.7H7.7Z" transform="translate(872 352.656)" fill="#f1c73f"/>
      <path id="Path_1" data-name="Path 1" d="M922.349,382.605s-10.156,3.438-10.031,3.531,6.188,8.906,6.188,8.906l-2.359-7.687Z" transform="translate(-30.21 -22.246)" fill="#d59533"/>
      <path id="Path_2" data-name="Path 2" d="M912.274,352.748v11.234l2.406-3.547Z" transform="translate(-30.197 -0.029)" fill="#d59533"/>
      <path id="Path_3" data-name="Path 3" d="M872,382.8l10.124,3.483-3.922,1.25Z" transform="translate(0 -22.405)" fill="#d59533"/>
      <path id="Path_4" data-name="Path 4" d="M893.669,396.08l-6.266,8.906,6.266-4.734Z" transform="translate(-11.545 -32.189)" fill="#d59533"/>
    </g>
    <g id="Group_8" data-name="Group 8" transform="translate(185.77 -0.656)">
      <path id="Polygon_1-2" data-name="Polygon 1" d="M10.078,0l2.379,7.7h7.7l-6.229,4.758,2.379,7.7L10.078,15.4,3.85,20.157l2.379-7.7L0,7.7H7.7Z" transform="translate(872 352.656)" fill="#f1c73f"/>
      <path id="Path_1-2" data-name="Path 1" d="M922.349,382.605s-10.156,3.438-10.031,3.531,6.188,8.906,6.188,8.906l-2.359-7.687Z" transform="translate(-30.21 -22.246)" fill="#d59533"/>
      <path id="Path_2-2" data-name="Path 2" d="M912.274,352.748v11.234l2.406-3.547Z" transform="translate(-30.197 -0.029)" fill="#d59533"/>
      <path id="Path_3-2" data-name="Path 3" d="M872,382.8l10.124,3.483-3.922,1.25Z" transform="translate(0 -22.405)" fill="#d59533"/>
      <path id="Path_4-2" data-name="Path 4" d="M893.669,396.08l-6.266,8.906,6.266-4.734Z" transform="translate(-11.545 -32.189)" fill="#d59533"/>
    </g>
    <g id="Group_9" data-name="Group 9" transform="translate(135.77 -0.656)">
      <path id="Polygon_1-3" data-name="Polygon 1" d="M10.078,0l2.379,7.7h7.7l-6.229,4.758,2.379,7.7L10.078,15.4,3.85,20.157l2.379-7.7L0,7.7H7.7Z" transform="translate(872 352.656)" fill="#f1c73f"/>
      <path id="Path_1-3" data-name="Path 1" d="M922.349,382.605s-10.156,3.438-10.031,3.531,6.188,8.906,6.188,8.906l-2.359-7.687Z" transform="translate(-30.21 -22.246)" fill="#d59533"/>
      <path id="Path_2-3" data-name="Path 2" d="M912.274,352.748v11.234l2.406-3.547Z" transform="translate(-30.197 -0.029)" fill="#d59533"/>
      <path id="Path_3-3" data-name="Path 3" d="M872,382.8l10.124,3.483-3.922,1.25Z" transform="translate(0 -22.405)" fill="#d59533"/>
      <path id="Path_4-3" data-name="Path 4" d="M893.669,396.08l-6.266,8.906,6.266-4.734Z" transform="translate(-11.545 -32.189)" fill="#d59533"/>
    </g>
  </g>
</svg>
